{
  "accessors": [
    {
      "bufferView": 2,
      "componentType": 5126,
      "count": 4452,
      "max": [
        0.7769018411636353,
        0.7769018411636353,
        2.201533794403076
      ],
      "min": [
        -0.7769018411636353,
        -0.7769018411636353,
        0.08331075310707092
      ],
      "type": "VEC3"
    },
    {
      "bufferView": 2,
      "byteOffset": 53424,
      "componentType": 5126,
      "count": 4452,
      "max": [
        1.0,
        1.0,
        1.0
      ],
      "min": [
        -1.0,
        -1.0,
        -1.0
      ],
      "type": "VEC3"
    },
    {
      "bufferView": 1,
      "componentType": 5126,
      "count": 4452,
      "max": [
        0.875,
        1.0000001192092896
      ],
      "min": [
        0.0,
        0.0
      ],
      "type": "VEC2"
    },
    {
      "bufferView": 0,
      "componentType": 5125,
      "count": 15324,
      "type": "SCALAR"
    },
    {
      "bufferView": 2,
      "byteOffset": 106848,
      "componentType": 5126,
      "count": 576,
      "max": [
        0.0738702043890953,
        0.0738702043890953,
        2.2000343799591064
      ],
      "min": [
        -0.07387017458677292,
        -0.07387015968561172,
        1.890891432762146
      ],
      "type": "VEC3"
    },
    {
      "bufferView": 2,
      "byteOffset": 113760,
      "componentType": 5126,
      "count": 576,
      "max": [
        0.9996654987335205,
        0.9996654987335205,
        0.990911602973938
      ],
      "min": [
        -0.9996654987335205,
        -0.9996654987335205,
        -0.9940215945243835
      ],
      "type": "VEC3"
    },
    {
      "bufferView": 1,
      "byteOffset": 35616,
      "componentType": 5126,
      "count": 576,
      "max": [
        0.0,
        0.0
      ],
      "min": [
        0.0,
        0.0
      ],
      "type": "VEC2"
    },
    {
      "bufferView": 0,
      "byteOffset": 61296,
      "componentType": 5125,
      "count": 3252,
      "type": "SCALAR"
    },
    {
      "bufferView": 2,
      "byteOffset": 120672,
      "componentType": 5126,
      "count": 1358,
      "max": [
        1.004288911819458,
        1.004288911819458,
        2.800525188446045
      ],
      "min": [
        -1.004288911819458,
        -1.004288911819458,
        1.4514718055725098
      ],
      "type": "VEC3"
    },
    {
      "bufferView": 2,
      "byteOffset": 136968,
      "componentType": 5126,
      "count": 1358,
      "max": [
        0.9889322519302368,
        0.9889243245124817,
        0.999743640422821
      ],
      "min": [
        -0.9889320731163025,
        -0.988923966884613,
        -0.9997380375862122
      ],
      "type": "VEC3"
    },
    {
      "bufferView": 1,
      "byteOffset": 40224,
      "componentType": 5126,
      "count": 1358,
      "max": [
        1.8010793924331665,
        1.4005357027053833
      ],
      "min": [
        -0.801079511642456,
        0.0994645282626152
      ],
      "type": "VEC2"
    },
    {
      "bufferView": 0,
      "byteOffset": 74304,
      "componentType": 5125,
      "count": 6528,
      "type": "SCALAR"
    }
  ],
  "asset": {
    "extras": {
      "author": "ShadowDark (https://sketchfab.com/gjerez43)",
      "license": "SKETCHFAB Standard (https://sketchfab.com/licenses)",
      "source": "https://sketchfab.com/3d-models/lamp-29bdbfb5d8bc44fea3469f53d14c177e",
      "title": "Lamp"
    },
    "generator": "Sketchfab-15.50.0",
    "version": "2.0"
  },
  "bufferViews": [
    {
      "buffer": 0,
      "byteLength": 100416,
      "name": "floatBufferViews",
      "target": 34963
    },
    {
      "buffer": 0,
      "byteLength": 51088,
      "byteOffset": 100416,
      "byteStride": 8,
      "name": "floatBufferViews",
      "target": 34962
    },
    {
      "buffer": 0,
      "byteLength": 153264,
      "byteOffset": 151504,
      "byteStride": 12,
      "name": "floatBufferViews",
      "target": 34962
    }
  ],
  "buffers": [
    {
      "byteLength": 304768,
      "uri": "scene.bin"
    }
  ],
  "extensionsUsed": [
    "KHR_materials_specular",
    "KHR_materials_emissive_strength"
  ],
  "images": [
    {
      "uri": "textures/blanco_baseColor.jpeg"
    }
  ],
  "materials": [
    {
      "doubleSided": true,
      "extensions": {
        "KHR_materials_specular": {
          "specularColorFactor": [
            1.0,
            1.0,
            1.0
          ],
          "specularFactor": 0.5592397995879607
        }
      },
      "name": "Dorado",
      "pbrMetallicRoughness": {
        "baseColorFactor": [
          1.0,
          0.899399,
          0.0,
          1.0
        ],
        "roughnessFactor": 0.14818788019163498
      }
    },
    {
      "doubleSided": true,
      "emissiveFactor": [
        1.0,
        1.0,
        1.0
      ],
      "extensions": {
        "KHR_materials_emissive_strength": {
          "emissiveStrength": 7.055259596981628
        }
      },
      "name": "material",
      "pbrMetallicRoughness": {
        "baseColorFactor": [
          0.8,
          0.8,
          0.8,
          1.0
        ],
        "metallicFactor": 0.0,
        "roughnessFactor": 0.349331350343163
      }
    },
    {
      "doubleSided": true,
      "name": "blanco",
      "pbrMetallicRoughness": {
        "baseColorTexture": {
          "index": 0
        },
        "metallicFactor": 0.0
      }
    }
  ],
  "meshes": [
    {
      "name": "Circle_Dorado_0",
      "primitives": [
        {
          "attributes": {
            "NORMAL": 1,
            "POSITION": 0,
            "TEXCOORD_0": 2
          },
          "indices": 3,
          "material": 0,
          "mode": 4
        }
      ]
    },
    {
      "name": "Circle_luz_0",
      "primitives": [
        {
          "attributes": {
            "NORMAL": 5,
            "POSITION": 4,
            "TEXCOORD_0": 6
          },
          "indices": 7,
          "material": 1,
          "mode": 4
        }
      ]
    },
    {
      "name": "Circle_blanco_0",
      "primitives": [
        {
          "attributes": {
            "NORMAL": 9,
            "POSITION": 8,
            "TEXCOORD_0": 10
          },
          "indices": 11,
          "material": 2,
          "mode": 4
        }
      ]
    }
  ],
  "nodes": [
    {
      "children": [
        1
      ],
      "matrix": [
        1.0,
        0.0,
        0.0,
        0.0,
        0.0,
        2.220446049250313e-16,
        -1.0,
        0.0,
        0.0,
        1.0,
        2.220446049250313e-16,
        0.0,
        0.0,
        0.0,
        0.0,
        1.0
      ],
      "name": "Sketchfab_model"
    },
    {
      "children": [
        2
      ],
      "matrix": [
        0.009999999776482582,
        0.0,
        0.0,
        0.0,
        0.0,
        0.0,
        0.009999999776482582,
        0.0,
        0.0,
        -0.009999999776482582,
        0.0,
        0.0,
        0.0,
        0.0,
        0.0,
        1.0
      ],
      "name": "Lamp.fbx"
    },
    {
      "children": [
        3
      ],
      "name": "RootNode"
    },
    {
      "children": [
        4,
        5,
        6
      ],
      "matrix": [
        100.0,
        0.0,
        0.0,
        0.0,
        0.0,
        -1.629206793918314e-05,
        -99.99999999999868,
        0.0,
        0.0,
        99.99999999999868,
        -1.629206793918314e-05,
        0.0,
        0.0,
        0.0,
        0.0,
        1.0
      ],
      "name": "Circle"
    },
    {
      "mesh": 0,
      "name": "Circle_Dorado_0"
    },
    {
      "mesh": 1,
      "name": "Circle_luz_0"
    },
    {
      "mesh": 2,
      "name": "Circle_blanco_0"
    }
  ],
  "samplers": [
    {
      "magFilter": 9729,
      "minFilter": 9987,
      "wrapS": 10497,
      "wrapT": 10497
    }
  ],
  "scene": 0,
  "scenes": [
    {
      "name": "Sketchfab_Scene",
      "nodes": [
        0
      ]
    }
  ],
  "textures": [
    {
      "sampler": 0,
      "source": 0
    }
  ]
}
